<svg width="58" height="58" viewBox="0 0 58 58" fill="none" xmlns="http://www.w3.org/2000/svg">
<path d="M57.152 27.7857C57.3922 33.3537 55.9759 38.8678 53.0822 43.6308C50.1884 48.3938 45.9473 52.1918 40.8951 54.5444C35.8429 56.8971 30.2065 57.6987 24.6987 56.848C19.1909 55.9973 14.059 53.5324 9.95208 49.7651C5.84513 45.9978 2.94755 41.0972 1.62575 35.6831C0.303954 30.269 0.617311 24.5845 2.5262 19.3485C4.43508 14.1125 7.85376 9.56011 12.3499 6.26704C16.8461 2.97397 22.2178 1.08811 27.7857 0.847954L28.1116 8.40423C24.0382 8.57992 20.1083 9.9596 16.8189 12.3688C13.5296 14.778 11.0285 18.1084 9.632 21.9391C8.23548 25.7697 8.00623 29.9284 8.97325 33.8893C9.94026 37.8502 12.0601 41.4354 15.0647 44.1916C18.0693 46.9477 21.8237 48.751 25.8532 49.3733C29.8827 49.9957 34.0062 49.4092 37.7024 47.6881C41.3985 45.9669 44.5013 43.1883 46.6183 39.7038C48.7353 36.2192 49.7714 32.1851 49.5957 28.1117L57.152 27.7857Z" fill="#EBEBEB"/>
<path d="M27.6864 0.851701C33.477 0.581599 39.21 2.10397 44.1037 5.21124C48.9974 8.31852 52.8137 12.8595 55.0323 18.215C57.2508 23.5705 57.7637 29.4799 56.5009 35.1376C55.2381 40.7952 52.2612 45.9258 47.9759 49.8296L42.7879 44.1348C45.9016 41.2982 48.0646 37.5703 48.9822 33.4594C49.8997 29.3485 49.5271 25.0547 47.915 21.1634C46.303 17.272 43.5301 13.9725 39.9743 11.7147C36.4185 9.45698 32.2529 8.35082 28.0454 8.54708L27.6864 0.851701Z" fill="#4245E5"/>
<path d="M17.9805 29.5361H19.2109C20.5098 29.5361 21.3164 30.1924 21.3164 31.2588C21.3164 32.2227 20.4551 32.9062 19.252 32.9062C18.0078 32.9062 17.2285 32.2568 17.1328 31.3135H15.6631C15.7588 33.0156 17.126 34.1846 19.252 34.1846C21.3096 34.1846 22.875 33.002 22.875 31.2793C22.875 29.8984 21.918 28.9893 20.4346 28.8867V28.8594C21.6582 28.6406 22.4648 27.7588 22.4648 26.5283C22.4648 25.0107 21.1045 23.9512 19.2383 23.9512C17.2832 23.9512 15.9775 25.0654 15.8613 26.7949H17.3037C17.3926 25.8242 18.1035 25.209 19.1699 25.209C20.3389 25.209 20.9678 25.8174 20.9678 26.7334C20.9678 27.6631 20.2363 28.333 19.1699 28.333H17.9805V29.5361ZM27.9062 34.1846C30.2715 34.1846 31.6592 32.1953 31.6592 29.0508C31.6592 25.9268 30.2646 23.9512 27.9062 23.9512C25.5547 23.9512 24.1396 25.9336 24.1396 29.0576C24.1396 32.2021 25.541 34.1846 27.9062 34.1846ZM27.9062 32.8994C26.498 32.8994 25.6914 31.4365 25.6914 29.0576C25.6914 26.7129 26.5117 25.2363 27.9062 25.2363C29.3008 25.2363 30.1143 26.7061 30.1143 29.0576C30.1143 31.4434 29.3145 32.8994 27.9062 32.8994ZM36.8682 26.4805C36.8682 24.9629 36.0273 23.9922 34.7354 23.9922C33.4365 23.9922 32.5957 24.9629 32.5957 26.4805C32.5957 27.998 33.4365 28.9688 34.7354 28.9688C36.0273 28.9688 36.8682 27.998 36.8682 26.4805ZM34.7354 28.0049C34.1885 28.0049 33.8467 27.4238 33.8467 26.4736C33.8467 25.5303 34.1885 24.9492 34.7354 24.9492C35.2754 24.9492 35.6172 25.5303 35.6172 26.4736C35.6172 27.4238 35.2754 28.0049 34.7354 28.0049ZM34.6738 34L38.167 29.2217L41.8789 24.1357H40.5322L37.1348 28.7842L33.3203 34H34.6738ZM42.6035 31.6279C42.6035 30.1035 41.7695 29.1328 40.4707 29.1328C39.1719 29.1328 38.3379 30.1035 38.3379 31.6279C38.3379 33.1455 39.1719 34.1162 40.4707 34.1162C41.7695 34.1162 42.6035 33.1455 42.6035 31.6279ZM40.4707 33.1455C39.9238 33.1455 39.5889 32.5713 39.5889 31.6211C39.5889 30.6709 39.9238 30.0967 40.4707 30.0967C41.0176 30.0967 41.3525 30.6709 41.3525 31.6211C41.3525 32.5713 41.0176 33.1455 40.4707 33.1455Z" fill="black"/>
</svg>